<!-- Generator: Adobe Illustrator 24.1.2, SVG Export Plug-In  -->
<svg version="1.1" xmlns="http://www.w3.org/2000/svg" xmlns:xlink="http://www.w3.org/1999/xlink" x="0px" y="0px"
	 width="809.979px" height="315.394px" viewBox="0 0 809.979 315.394"
	 style="overflow:visible;enable-background:new 0 0 809.979 315.394;" xml:space="preserve">
<style type="text/css">
	.st0{fill:#E6302E;}
</style>
<defs>
</defs>
<g>
	<g>
		<path class="st0" d="M280.569,26.595c-10.749,0-20.175-0.605-29.494,0.14c-14.587,1.166-27.424,5.989-33.861,20.768
			c-0.627,1.44-0.808,3.075-1.517,5.898c8.668,0,16.642,0.44,24.495-0.343c1.725-0.172,4.147-4.615,4.322-7.22
			c1.086-16.197,0.904-16.209,17.469-16.205c4.096,0.001,8.191,0,12.696,0c0.286,3.065,0.655,5.202,0.658,7.341
			c0.042,23.878-0.201,47.76,0.174,71.632c0.106,6.767-2.332,8.602-8.658,8.455c-26.372-0.615-21.703,3.479-22.101-21.835
			c-0.231-14.708-0.165-14.822-15.029-14.83c-19.753-0.011-20.596,1.183-14.313,20.207c0.435,1.317,0.788,2.66,1.184,3.99
			c1.434,4.82,5.537,12.186,3.814,13.989c-5.567,5.828-13.158,9.814-20.296,13.944c-0.975,0.564-4.68-1.594-5.652-3.319
			C177.561,99.216,173,68.044,188.478,36.235C199.404,13.78,218.98,2.785,243.382,0.38c7.976-0.786,16.092-0.087,24.142-0.228
			c4.594-0.08,7.066,1.618,7.945,6.457C276.593,12.792,278.54,18.825,280.569,26.595z"/>
		<path class="st0" d="M292.309,89.52c0-16.665,0.298-33.338-0.135-49.992c-0.194-7.447,2.596-9.735,9.741-9.465
			c11.649,0.441,23.348-0.332,34.988,0.209c28.684,1.333,39.617,20.655,33.101,46.574c-5.113,20.336-18.598,34.032-39.083,39.918
			c-7.509,2.157-9.873,6.255-9.647,14.183c0.533,18.631,3.333,17.977-18.41,18.188c-7.67,0.074-11.033-2.064-10.728-10.46
			C292.728,122.31,292.308,105.908,292.309,89.52z M321.603,92.362c11.219-0.656,20.205-11.106,20.655-22.982
			c0.389-10.276-3.408-15.004-13.482-15.318c-2.342-0.073-6.756,2.835-6.852,4.559C321.299,69.828,321.603,81.087,321.603,92.362z"
			/>
		<path class="st0" d="M506.324,65.665c2.594-8.621,5.387-17.189,7.715-25.881c1.683-6.283,4.281-10.533,11.862-9.703
			c4.942,0.542,9.998,0.265,14.992,0.069c5.404-0.212,7.181,2.035,5.382,7.093c-12.168,34.215-24.583,68.345-36.366,102.692
			c-3.11,9.064-9.222,9.318-16.831,9.182c-16.328-0.291-18.33-1.153-11.077-14.692c11.472-21.415,3.035-39.327-5.056-58.192
			c-5.347-12.466-10.171-25.16-15.064-37.816c-1.979-5.119-1.351-8.434,5.583-8.315c31.753,0.541,21.347-4.206,32.911,27.158
			c1.119,3.035,2.561,5.951,3.853,8.922C504.926,66.009,505.625,65.837,506.324,65.665z"/>
		<path class="st0" d="M589.028,29.177c0.833,0,1.672,0.06,2.5-0.009c37.397-3.115,43.527,26.773,36.015,50.041
			c-3.22,9.974-7.567,20.136-13.729,28.498c-14.939,20.27-44.873,15.218-56.84-7.234c-7.206-13.519-10.811-27.62-9.896-43.011
			c0.952-16.019,11.1-26.821,26.971-27.799c4.985-0.307,9.981-0.451,14.972-0.669C589.022,29.055,589.025,29.116,589.028,29.177z
			 M602.512,68.818c-1.55-12.894-3.163-15.238-11.808-15.806c-11.825-0.777-15.129,2.565-15.509,12.035
			c-0.332,8.27,4.005,17.138,7.779,25.024c2.771,5.79,8.221,5.52,11.205-0.479C597.49,82.933,599.778,75.765,602.512,68.818z"/>
		<path class="st0" d="M419.839,27.906c7.991,1.551,16.218,2.368,23.909,4.846c8.748,2.819,13.351,10.156,15.725,18.825
			c5.322,19.434-5.155,49.965-21.307,62.166c-13.403,10.124-34.252,8.082-44.784-4.975c-13.96-17.307-18.672-37.239-14.678-59.057
			c1.755-9.591,12.694-18.963,22.628-19.866c6.064-0.551,12.174-0.594,18.264-0.866C419.676,28.622,419.757,28.264,419.839,27.906z
			 M433.037,68.411c-1.063-10.519-3.596-14.541-10.866-15.355c-9.413-1.054-17.126,2.982-16.342,10.516
			c0.939,9.023,4.091,18.098,7.851,26.445c2.423,5.38,8.039,5.311,10.897-0.407C427.967,82.828,430.266,75.501,433.037,68.411z"/>
	</g>
</g>
<g>
	<path d="M298.14,195.458c8.123,1.788,19.623,2.859,29.919,6.956c12.86,5.117,19.695,16.386,20.539,30.249
		c1.329,21.823-3.241,41.851-15.674,60.726c-19.392,29.437-57.072,29.411-77.026-0.51c-13.489-20.227-17.075-42.797-13.816-66.521
		c1.781-12.963,14.78-25.181,28.847-27.591C278.825,197.415,286.846,196.801,298.14,195.458z M278.806,246.547
		C278.081,246.836,279.532,246.257,278.806,246.547c3.897,9.773,4.854,20.82,9.762,30.055c3.782,7.116,9.388,7.137,12.803-0.076
		c4.454-9.408,8.205-19.622,9.652-29.858c1.73-12.238-4.897-18.325-16.426-18.239C283.112,228.515,278.594,233.698,278.806,246.547z
		"/>
	<path d="M570.508,311.452c-16.877,0-33.033,2.203-48.321-0.502c-24.645-4.361-45.344-24.66-51.328-51.818
		c-2.552-11.58-3.179-23.245,1.073-34.417c6.803-17.872,21.717-24.581,39.383-25.387c17.445-0.796,34.954-0.132,52.435-0.219
		c4.125-0.021,6.841,0.686,6.823,5.817C570.449,240.127,570.508,275.329,570.508,311.452z M533.136,279.168
		c0-15.684,0-31.303,0-47.418c-5.745,0-11.156-0.908-16.039,0.306c-3.502,0.87-7.895,3.952-9.14,7.126
		C501.902,254.624,515.918,276.65,533.136,279.168z"/>
	<path d="M122.164,311.736c0-5.909,0.109-11.105-0.02-16.294c-0.454-18.269-0.569-36.563-1.701-54.792
		c-0.461-7.422-11.897-12.633-18.149-8.776c-1.657,1.022-2.347,4.667-2.368,7.117c-0.182,20.823-0.106,41.648-0.108,62.473
		c0,2.988,0,5.976,0,9.614c-12.395,0-23.91,0-36.251,0c-0.189-2.117-0.58-4.478-0.583-6.84c-0.041-31.931,0.172-63.864-0.179-95.791
		c-0.08-7.265,1.981-9.714,9.389-9.474c15.81,0.513,31.649,0.053,47.475,0.181c25.839,0.207,38.473,12.634,38.694,38.268
		c0.189,21.934-0.127,43.872,0.146,65.804c0.079,6.34-1.691,9.05-8.481,8.641C141.218,311.335,132.352,311.736,122.164,311.736z"/>
	<path d="M398.278,311.156c-12.545,0-24.067,0-36.368,0c-0.164-2.652-0.47-5.311-0.473-7.97c-0.033-31.385,0.165-62.772-0.16-94.154
		c-0.076-7.31,1.613-10.378,9.63-10.081c16.087,0.597,32.221-0.163,48.318,0.286c13.798,0.385,27.093,3.496,33.397,17.499
		c3.097,6.88,4.609,14.961,4.829,22.556c0.628,21.646,0.067,43.324,0.332,64.985c0.072,5.865-1.982,7.845-7.728,7.55
		c-7.479-0.384-15.015-0.439-22.486,0.017c-5.974,0.364-7.634-1.964-7.564-7.648c0.244-19.717,0.262-39.441-0.049-59.157
		c-0.092-5.862,0.296-12.528-8.736-13.421c-12.634-1.249-12.939-1.262-12.942,11.72c-0.005,19.442-0.002,38.884-0.002,58.326
		C398.278,304.648,398.278,307.631,398.278,311.156z"/>
	<path d="M689.094,199.134c-12.325,38.935-23.943,75.639-35.555,112.321c-14.554,0-28.122,0-42.767,0
		c-11.591-36.619-23.247-73.439-35.484-112.097c13.268,0,24.527-0.268,35.749,0.257c1.923,0.09,4.758,3.276,5.352,5.514
		c3.791,14.301,7.053,28.743,10.533,43.127c1.292,5.339,2.704,10.649,5.569,16.373c2.415-8.496,5.028-16.942,7.195-25.501
		c2.708-10.695,4.981-21.5,7.582-32.223c1.217-5.016,3.741-8.169,9.812-7.89C666.709,199.459,676.373,199.134,689.094,199.134z"/>
	<path d="M242.333,190.9c-9.125,1.252-16.677,2.226-24.192,3.436c-0.608,0.098-0.955,1.81-2.076,4.11
		c4.468,0.259,8.186,0.942,11.8,0.584c6.808-0.675,8.953,2.613,8.652,8.722c-0.109,2.214,0.019,4.44,0.022,6.66
		c0.017,13.902,0.032,14.162-13.662,15.038c-5.938,0.38-6.528,3.586-6.509,8.246c0.087,21.372,0.035,42.745,0.032,64.118
		c0,2.991,0,5.983,0,9.435c-12.769,0-24.545,0-37.415,0c0-9.138,0-17.946,0-26.754c0-14.434,0.032-28.867-0.018-43.3
		c-0.017-5.083,1.387-10.737-5.658-13.053c-1.001-0.329-1.493-3.364-1.557-5.17c-0.196-5.544-0.132-11.101-0.031-16.651
		c0.03-1.632,0.055-4.374,0.868-4.711c8.932-3.698,5.581-11.878,7.019-18.284c3.066-13.653,12.898-21.583,28.769-23.266
		c23.824-2.526,24.612-1.976,30.945,21.124C240.175,184.288,241.223,187.337,242.333,190.9z"/>
	<path d="M786.785,166.788c0,9.428,0.284,16.585-0.084,23.707c-0.336,6.498,2.243,9.415,8.701,8.603
		c7.953-1,11.384,2.285,10.312,10.322c-0.291,2.18-0.043,4.432-0.043,6.651c-0.003,12.013-0.06,11.688-11.904,13.781
		c-2.591,0.458-6.45,4.036-6.585,6.359c-0.677,11.609-0.564,23.287-0.204,34.925c0.199,6.424,3.861,10.152,10.718,10.009
		c3.535-0.074,7.073-0.013,12.283-0.013c-3.101,10.768-5.79,20.105-8.998,31.242c-10.819-0.811-22.36-0.082-32.976-2.873
		c-13.472-3.542-17.688-15.578-18.162-28.362c-0.523-14.127-0.148-28.288-0.136-42.435c0.003-4.227,0.26-8.29-5.194-9.985
		c-1.298-0.403-2.368-3.503-2.472-5.42c-0.315-5.807-0.224-11.647-0.029-17.466c0.062-1.838,0.588-5.011,1.518-5.259
		c8.786-2.343,6.064-9.343,6.057-14.862c-0.008-5.962,2.124-9.083,8.114-10.511C766.736,173.048,775.577,170.081,786.785,166.788z"
		/>
	<path d="M40.296,311.397c-2.769,0.143-4.646,0.32-6.524,0.325c-10.788,0.027-21.577,0.013-33.619,0.013c0-3.282,0-5.938,0-8.593
		c0-44.414,0.156-88.83-0.152-133.242C-0.051,162.372,2,159.283,9.8,159.814c8.014,0.546,16.094,0.239,24.141,0.111
		c4.504-0.072,6.429,1.633,6.419,6.36C40.255,214.298,40.296,262.311,40.296,311.397z"/>
	<path d="M729.891,311.434c-12.787,0-24.385,0-36.886,0c-0.163-2.874-0.444-5.541-0.446-8.207
		c-0.031-31.345,0.231-62.693-0.19-94.032c-0.11-8.171,2.588-10.86,10.502-10.187c6.886,0.585,13.909-0.322,20.765,0.416
		c2.256,0.243,5.97,3.549,5.99,5.486C729.989,240.086,729.891,275.268,729.891,311.434z"/>
	<path d="M710.842,192.23c-20.608-0.374-18.062,3.163-18.302-17.935c-0.022-1.944,0.175-3.906-0.028-5.829
		c-0.695-6.594,2.301-8.945,8.725-8.612c7.202,0.373,14.439,0.224,21.656,0.064c4.871-0.108,7.296,1.843,7.054,6.851
		c-0.107,2.216,0.003,4.442,0.004,6.664C729.964,192.23,729.964,192.23,710.842,192.23z"/>
</g>
</svg>